HIERARCHY
ROOT SpineBase
{
  OFFSET 0.000000 0.000000 0.000000
  CHANNELS 6 Xposition Yposition Zposition Zrotation Xrotation Yrotation
  JOINT SpineMid
  {
    OFFSET 0.000000 33.992800 0.000000
    CHANNELS 3 Zrotation Xrotation Yrotation
    JOINT SpineShoulder
    {
      OFFSET 0.356280 25.206126 -0.917550
      CHANNELS 3 Zrotation Xrotation Yrotation
      JOINT Neck
      {
        OFFSET 0.215658 8.315522 -0.691500
        CHANNELS 3 Zrotation Xrotation Yrotation
        JOINT Head
        {
          OFFSET 5.630389 9.780136 4.974744
          CHANNELS 3 Zrotation Xrotation Yrotation
          End Site
          {
            OFFSET 0 0 0
          }
        }
      }
      JOINT ShoulderLeft
      {
        OFFSET -4.086711 -5.592830 -14.944619
        CHANNELS 3 Zrotation Xrotation Yrotation
        JOINT ElbowLeft
        {
          OFFSET -4.119420 -28.554799 -7.780975
          CHANNELS 3 Zrotation Xrotation Yrotation
          JOINT WristLeft
          {
            OFFSET 2.979341 -23.667381 -2.143528
            CHANNELS 3 Zrotation Xrotation Yrotation
            JOINT HandLeft
            {
              OFFSET 0.133096 -5.136227 3.766748
              CHANNELS 3 Zrotation Xrotation Yrotation
              JOINT HandTipLeft
              {
                OFFSET -0.192086 -7.628656 0.320408
                CHANNELS 3 Zrotation Xrotation Yrotation
                End Site
                {
                  OFFSET 0 0 0
                }
              }
              JOINT ThumbLeft
              {
                OFFSET 5.118697 1.044819 2.684650
                CHANNELS 3 Zrotation Xrotation Yrotation
                End Site
                {
                  OFFSET 0 0 0
                }
              }
            }
          }
        }
      }
      JOINT ShoulderRight
      {
        OFFSET 9.727545 -7.610093 9.374466
        CHANNELS 3 Zrotation Xrotation Yrotation
        JOINT ElbowRight
        {
          OFFSET -0.068463 -30.382862 2.862067
          CHANNELS 3 Zrotation Xrotation Yrotation
          JOINT WristRight
          {
            OFFSET 0.393893 -22.141044 2.928908
            CHANNELS 3 Zrotation Xrotation Yrotation
            JOINT HandRight
            {
              OFFSET 0.674029 -6.498157 -0.598924
              CHANNELS 3 Zrotation Xrotation Yrotation
              JOINT HandTipRight
              {
                OFFSET 0.051010 -0.278779 -0.998575
                CHANNELS 3 Zrotation Xrotation Yrotation
                End Site
                {
                  OFFSET 0 0 0
                }
              }
              JOINT ThumbRight
              {
                OFFSET 0.291039 0.554989 -2.318129
                CHANNELS 3 Zrotation Xrotation Yrotation
                End Site
                {
                  OFFSET 0 0 0
                }
              }
            }
          }
        }
      }
    }
  }
  JOINT HipLeft
  {
    OFFSET -2.801288 1.455739 -6.864992
    CHANNELS 3 Zrotation Xrotation Yrotation
    JOINT KneeLeft
    {
      OFFSET -7.156467 -34.633535 -5.236817
      CHANNELS 3 Zrotation Xrotation Yrotation
      JOINT AnkleLeft
      {
        OFFSET -11.050789 -36.254555 1.293420
        CHANNELS 3 Zrotation Xrotation Yrotation
        JOINT FootLeft
        {
          OFFSET 9.734171 -4.153048 -8.674773
          CHANNELS 3 Zrotation Xrotation Yrotation
          End Site
          {
            OFFSET 0 0 0
          }
        }
      }
    }
  }
  JOINT HipRight
  {
    OFFSET 3.964598 0.149583 -0.760803
    CHANNELS 3 Zrotation Xrotation Yrotation
    JOINT KneeRight
    {
      OFFSET -1.984383 -32.625192 21.918223
      CHANNELS 3 Zrotation Xrotation Yrotation
      JOINT AnkleRight
      {
        OFFSET -15.809625 -37.561456 1.295948
        CHANNELS 3 Zrotation Xrotation Yrotation
        JOINT FootRight
        {
          OFFSET 0.976554 -8.693393 0.507431
          CHANNELS 3 Zrotation Xrotation Yrotation
          End Site
          {
            OFFSET 0 0 0
          }
        }
      }
    }
  }
}
MOTION
Frames: 9
Frame Time: 0.033333
-52.530465 76.139447 332.736189 -1.993908 -0.064816 -35.537452 0.383830 0.562014 35.486443 1.355069 -0.168206 0.053702 12.164363 2.895230 -8.587612 0.000000 0.000000 0.000000 35.660176 -9.894405 -5.825107 25.914541 -24.893435 11.996095 -1.472392 11.342880 38.916023 16.356145 -12.579953 -32.695827 0.000000 0.000000 0.000000 0.000000 0.000000 0.000000 -0.632044 30.573376 0.043764 122.986073 -39.302545 100.374206 37.625801 -0.685709 -65.216983 -52.852931 38.241996 -91.833347 0.000000 0.000000 0.000000 0.000000 0.000000 0.000000 3.508056 4.223630 34.647514 -3.294415 -1.382210 0.741087 -0.136916 -0.592536 -1.118737 0.000000 0.000000 0.000000 -33.405702 37.944364 42.430845 68.196767 -74.182006 80.148146 90.358360 37.938355 -68.226898 0.000000 0.000000 0.000000
-52.373504 75.720844 332.839035 -1.717537 -0.215682 -35.190792 0.133973 0.535040 35.142195 1.299833 -0.143249 0.050974 12.109336 2.939453 -8.583812 0.000000 0.000000 0.000000 35.584380 -9.816436 -5.845787 26.373374 -25.315641 12.256227 -0.910590 10.705586 39.302973 15.047931 -10.804996 -33.440970 0.000000 0.000000 0.000000 0.000000 0.000000 0.000000 -0.682261 33.573424 0.065513 127.516166 -39.525629 107.342185 35.169717 -4.124580 -61.326550 -52.218828 32.886033 -105.072765 0.000000 0.000000 0.000000 0.000000 0.000000 0.000000 2.698115 4.246404 34.309637 -2.908753 -1.743103 0.753639 -0.116755 -0.595582 -1.168139 0.000000 0.000000 0.000000 -33.681214 38.082583 41.949025 67.104720 -74.023135 78.822702 90.052596 38.072554 -67.556654 0.000000 0.000000 0.000000
-52.090511 75.679448 332.961701 -1.342735 -0.386978 -35.080510 -0.116966 0.489579 35.038071 1.157140 -0.080016 0.044068 11.513494 3.038977 -8.287950 0.000000 0.000000 0.000000 35.663187 -9.806667 -5.868640 26.635062 -25.809570 12.587785 -0.371493 10.774385 39.444917 14.364762 -10.673558 -33.626479 0.000000 0.000000 0.000000 0.000000 0.000000 0.000000 -0.669342 34.205467 0.065343 128.832417 -39.186497 109.078353 34.867598 -4.511855 -61.357195 -58.920037 26.138646 -103.596363 0.000000 0.000000 0.000000 0.000000 0.000000 0.000000 1.794045 4.099193 34.248975 -2.453848 -1.971388 0.734914 -0.084077 -0.572779 -1.181657 0.000000 0.000000 0.000000 -34.263549 37.952608 41.550342 66.158434 -73.580707 77.488388 89.683323 38.272549 -66.868903 0.000000 0.000000 0.000000
-51.729654 75.650700 333.168775 -0.931528 -0.642712 -36.031700 -0.352227 0.491205 35.999661 0.927397 0.038827 0.032901 10.015156 3.339449 -7.582409 0.000000 0.000000 0.000000 35.695204 -9.730701 -5.913093 26.771384 -26.414211 12.980194 0.228295 11.932509 39.181472 14.289639 -11.358419 -33.772806 0.000000 0.000000 0.000000 0.000000 0.000000 0.000000 -0.484878 31.733470 0.019265 126.547692 -38.536935 104.888818 36.420352 -1.992953 -65.315355 -60.927247 19.987690 -101.117531 0.000000 0.000000 0.000000 0.000000 0.000000 0.000000 0.721934 3.941234 35.271081 -1.943238 -2.145422 0.700358 -0.048866 -0.536995 -1.169386 0.000000 0.000000 0.000000 -35.979173 37.414043 42.342192 66.577987 -73.129401 77.480927 89.366525 38.480032 -66.232399 0.000000 0.000000 0.000000
-51.582692 75.518533 333.247248 -0.767089 -0.698758 -36.566919 -0.370184 0.440120 36.540285 0.802132 0.125114 0.026559 8.968173 3.636120 -7.148625 0.000000 0.000000 0.000000 35.855160 -9.752993 -5.939066 26.758401 -26.891344 13.310318 -0.047383 13.332710 38.659968 15.250906 -12.517355 -33.525381 0.000000 0.000000 0.000000 0.000000 0.000000 0.000000 -0.457024 31.795655 0.013947 126.980218 -38.180205 105.278112 37.997660 0.501508 -68.340429 -64.709501 15.197239 -95.162379 0.000000 0.000000 0.000000 0.000000 0.000000 0.000000 0.436139 3.793860 35.839698 -1.817598 -2.111369 0.677349 -0.040938 -0.514756 -1.132740 0.000000 0.000000 0.000000 -36.909621 37.084428 42.728226 67.604553 -72.777103 78.243813 89.226976 38.591311 -66.059450 0.000000 0.000000 0.000000
-51.530153 75.548802 333.241799 -0.710888 -0.637964 -36.295704 0.195360 0.934974 36.290152 -0.000000 0.000000 0.000000 8.269420 3.729854 -6.793818 0.000000 0.000000 0.000000 35.988630 -9.787155 -5.953070 26.737619 -27.274453 13.569745 -0.195595 13.746216 38.428636 14.116817 -11.973586 -33.116305 0.000000 0.000000 0.000000 0.000000 0.000000 0.000000 -0.545653 32.001500 0.031887 127.273335 -37.756976 105.448662 38.754240 2.718126 -70.025294 -68.115926 12.232011 -88.519287 0.000000 0.000000 0.000000 0.000000 0.000000 0.000000 0.464443 3.666135 35.579594 -1.808746 -2.064308 0.667163 -0.029250 -0.500844 -1.123844 0.000000 0.000000 0.000000 -36.739425 37.062616 42.253093 67.748303 -72.517822 78.262824 89.168520 38.614835 -66.085879 0.000000 0.000000 0.000000
-51.590877 75.712293 333.144789 -0.786595 -0.465511 -35.564688 0.369162 0.836150 35.558799 -0.000000 0.000000 0.000000 8.076970 3.555630 -6.570255 0.000000 0.000000 0.000000 36.155874 -9.869690 -5.950921 26.556984 -27.399689 13.666456 0.105539 13.446578 38.486795 14.489724 -11.306032 -33.719302 0.000000 0.000000 0.000000 0.000000 0.000000 0.000000 -0.722814 32.314724 0.068382 127.592950 -37.577812 105.752540 40.732868 5.122753 -72.871902 -69.898500 8.016452 -84.439005 0.000000 0.000000 0.000000 0.000000 0.000000 0.000000 0.891825 3.529645 34.846875 -1.968744 -1.911317 0.659167 -0.019786 -0.493170 -1.125222 0.000000 0.000000 0.000000 -35.793679 37.238417 41.340756 67.419283 -72.413489 77.961843 89.217582 38.563032 -66.323198 0.000000 0.000000 0.000000
-51.683203 75.917556 332.980366 -0.906444 -0.206972 -34.595528 0.628695 0.685009 34.590133 -0.000000 0.000000 0.000000 8.508081 3.142431 -6.561474 0.000000 0.000000 0.000000 36.277370 -9.930956 -5.948551 26.621098 -27.623990 13.831056 0.464327 13.403503 38.580297 14.827048 -9.744365 -34.940597 0.000000 0.000000 0.000000 0.000000 0.000000 0.000000 -0.969871 32.699679 0.120752 127.820365 -37.101655 105.782680 40.356682 6.005995 -72.636714 -72.244139 7.685699 -79.159279 0.000000 0.000000 0.000000 0.000000 0.000000 0.000000 1.435735 3.288685 33.888696 -2.122384 -1.710666 0.641759 -0.008488 -0.487271 -1.134649 0.000000 0.000000 0.000000 -34.399719 37.412574 40.116633 66.932012 -72.371675 77.585008 89.387016 38.435118 -66.743612 0.000000 0.000000 0.000000
-51.705359 76.588205 332.848706 -0.898232 -0.033593 -31.095205 0.751836 0.492652 31.091710 -0.000000 0.000000 0.000000 9.339465 2.617091 -6.712093 0.000000 0.000000 0.000000 36.351301 -9.904452 -5.978666 26.883382 -27.941662 14.094273 0.806969 12.241541 39.003028 13.364743 -5.753685 -36.161237 0.000000 0.000000 0.000000 0.000000 0.000000 0.000000 -1.266183 33.128602 0.185740 128.651641 -37.252266 106.805459 44.183781 7.504103 -77.323493 -73.377687 5.965389 -74.097796 0.000000 0.000000 0.000000 0.000000 0.000000 0.000000 1.705911 3.205422 30.346042 -2.194792 -1.858182 0.679276 0.015959 -0.475701 -1.157874 0.000000 0.000000 0.000000 -31.025321 38.552354 35.973039 64.729067 -72.242049 75.492373 89.565455 38.295651 -67.115733 0.000000 0.000000 0.000000
